<svg width="24" height="24" viewBox="0 0 24 24" fill="none" xmlns="http://www.w3.org/2000/svg">
<path opacity="0.2" d="M12.8438 6.09375C12.5288 6.40764 12.1278 6.62115 11.6916 6.70734C11.2554 6.79352 10.8034 6.74851 10.3927 6.57798C9.98201 6.40746 9.63107 6.11906 9.38418 5.74922C9.13729 5.37938 9.00553 4.94468 9.00553 4.5C9.00553 4.05533 9.13729 3.62062 9.38418 3.25078C9.63107 2.88094 9.98201 2.59255 10.3927 2.42202C10.8034 2.25149 11.2554 2.20648 11.6916 2.29266C12.1278 2.37885 12.5288 2.59236 12.8438 2.90625C13.0535 3.11528 13.2199 3.36367 13.3335 3.63716C13.4471 3.91065 13.5055 4.20387 13.5055 4.5C13.5055 4.79613 13.4471 5.08935 13.3335 5.36284C13.2199 5.63633 13.0535 5.88472 12.8438 6.09375ZM2.15625 9.65625C1.84236 9.97123 1.62885 10.3722 1.54266 10.8084C1.45648 11.2446 1.50149 11.6966 1.67202 12.1073C1.84255 12.518 2.13094 12.8689 2.50078 13.1158C2.87062 13.3627 3.30533 13.4945 3.75 13.4945C4.19468 13.4945 4.62938 13.3627 4.99922 13.1158C5.36906 12.8689 5.65746 12.518 5.82798 12.1073C5.99851 11.6966 6.04352 11.2446 5.95734 10.8084C5.87115 10.3722 5.65764 9.97123 5.34375 9.65625C5.13472 9.44649 4.88633 9.28006 4.61284 9.1665C4.33935 9.05293 4.04613 8.99448 3.75 8.99448C3.45387 8.99448 3.16065 9.05293 2.88716 9.1665C2.61367 9.28006 2.36528 9.44649 2.15625 9.65625ZM13.4063 17.9063C13.0924 18.2212 12.8788 18.6222 12.7927 19.0584C12.7065 19.4946 12.7515 19.9466 12.922 20.3573C13.0925 20.768 13.3809 21.1189 13.7508 21.3658C14.1206 21.6127 14.5553 21.7445 15 21.7445C15.4447 21.7445 15.8794 21.6127 16.2492 21.3658C16.6191 21.1189 16.9075 20.768 17.078 20.3573C17.2485 19.9466 17.2935 19.4946 17.2073 19.0584C17.1212 18.6222 16.9076 18.2212 16.5938 17.9063C16.3847 17.6965 16.1363 17.5301 15.8628 17.4165C15.5894 17.3029 15.2961 17.2445 15 17.2445C14.7039 17.2445 14.4107 17.3029 14.1372 17.4165C13.8637 17.5301 13.6153 17.6965 13.4063 17.9063ZM21.0938 5.15625C20.7788 4.84236 20.3778 4.62885 19.9416 4.54266C19.5054 4.45648 19.0534 4.50149 18.6427 4.67202C18.232 4.84255 17.8811 5.13094 17.6342 5.50078C17.3873 5.87062 17.2555 6.30533 17.2555 6.75C17.2555 7.19468 17.3873 7.62938 17.6342 7.99922C17.8811 8.36906 18.232 8.65746 18.6427 8.82798C19.0534 8.99851 19.5054 9.04352 19.9416 8.95734C20.3778 8.87115 20.7788 8.65764 21.0938 8.34375C21.3035 8.13472 21.4699 7.88633 21.5835 7.61284C21.6971 7.33935 21.7555 7.04613 21.7555 6.75C21.7555 6.45387 21.6971 6.16065 21.5835 5.88716C21.4699 5.61367 21.3035 5.36528 21.0938 5.15625Z" fill="#343330"/>
<path d="M21.6225 4.62774C21.3439 4.34909 21.0132 4.12805 20.6491 3.97725C20.2851 3.82644 19.8949 3.74882 19.5009 3.74882C19.1069 3.74882 18.7167 3.82644 18.3527 3.97725C17.9887 4.12805 17.6579 4.34909 17.3794 4.62774C17.1906 4.81645 17.0279 5.0296 16.8956 5.26149L14.25 4.53962C14.2582 3.94276 14.0881 3.35704 13.7616 2.85738C13.435 2.35771 12.9669 1.96681 12.4169 1.73468C11.867 1.50255 11.2603 1.43975 10.6745 1.5543C10.0887 1.66886 9.5504 1.95556 9.12843 2.37774C8.67787 2.82936 8.3827 3.41263 8.28562 4.04314C8.18854 4.67365 8.29459 5.31869 8.58843 5.88493L5.40655 8.74899C4.82926 8.36743 4.13795 8.19683 3.44942 8.26601C2.76089 8.33518 2.11734 8.6399 1.62749 9.12868C1.07977 9.67224 0.762572 10.406 0.74181 11.1773C0.721048 11.9487 0.998321 12.6984 1.51601 13.2707C2.03369 13.8429 2.75197 14.1937 3.52156 14.25C4.29116 14.3064 5.05288 14.0641 5.64843 13.5734L12.2109 18.3884C12.0009 18.9143 11.944 19.4889 12.0469 20.0458C12.1497 20.6027 12.4081 21.1191 12.7921 21.5353C13.1761 21.9515 13.6701 22.2505 14.2169 22.3978C14.7637 22.545 15.3411 22.5345 15.8822 22.3674C16.4233 22.2003 16.906 21.8835 17.2746 21.4535C17.6432 21.0236 17.8825 20.4981 17.965 19.9379C18.0475 19.3776 17.9697 18.8054 17.7406 18.2875C17.5116 17.7696 17.1406 17.3271 16.6706 17.0112L19.2384 9.73711C19.3247 9.74462 19.4109 9.74837 19.4972 9.74837C20.0904 9.74828 20.6703 9.57231 21.1635 9.24272C21.6567 8.91313 22.0412 8.44471 22.2683 7.89666C22.4953 7.34862 22.5548 6.74555 22.4392 6.16371C22.3236 5.58186 22.0381 5.04735 21.6187 4.62774H21.6225ZM10.185 3.43805C10.3948 3.22844 10.6621 3.08575 10.953 3.028C11.244 2.97026 11.5455 3.00006 11.8195 3.11364C12.0935 3.22722 12.3276 3.41948 12.4924 3.66612C12.6571 3.91276 12.7451 4.2027 12.7451 4.4993C12.7451 4.7959 12.6571 5.08585 12.4924 5.33248C12.3276 5.57912 12.0935 5.77138 11.8195 5.88496C11.5455 5.99854 11.244 6.02835 10.953 5.9706C10.6621 5.91286 10.3948 5.77016 10.185 5.56055C10.0458 5.421 9.93542 5.25537 9.86026 5.07314C9.7851 4.89091 9.74659 4.69565 9.74693 4.49853C9.74728 4.3014 9.78648 4.10628 9.86229 3.92432C9.9381 3.74235 10.049 3.57712 10.1887 3.43805H10.185ZM2.68499 12.3115C2.54553 12.1722 2.43489 12.0067 2.3594 11.8247C2.28391 11.6426 2.24506 11.4474 2.24506 11.2502C2.24506 11.0531 2.28391 10.8579 2.3594 10.6758C2.43489 10.4937 2.54553 10.3283 2.68499 10.189C2.89483 9.97938 3.16211 9.83668 3.45304 9.77894C3.74396 9.7212 4.04548 9.751 4.31947 9.86458C4.59346 9.97816 4.82763 10.1704 4.99238 10.4171C5.15713 10.6637 5.24506 10.9536 5.24506 11.2502C5.24506 11.5468 5.15713 11.8368 4.99238 12.0834C4.82763 12.3301 4.59346 12.5223 4.31947 12.6359C4.04548 12.7495 3.74396 12.7793 3.45304 12.7215C3.16211 12.6638 2.89483 12.5211 2.68499 12.3115ZM16.0584 20.5615C15.7771 20.8428 15.3955 21.0009 14.9976 21.0009C14.5998 21.0009 14.2182 20.8428 13.9369 20.5615C13.6555 20.2802 13.4975 19.8986 13.4975 19.5007C13.4975 19.1028 13.6555 18.7213 13.9369 18.4399C14.0762 18.3006 14.2415 18.1901 14.4236 18.1147C14.6056 18.0393 14.8006 18.0005 14.9976 18.0005C15.1947 18.0005 15.3897 18.0393 15.5717 18.1147C15.7537 18.1901 15.9191 18.3006 16.0584 18.4399C16.1977 18.5792 16.3082 18.7446 16.3836 18.9266C16.459 19.1086 16.4978 19.3037 16.4978 19.5007C16.4978 19.6977 16.459 19.8928 16.3836 20.0748C16.3082 20.2568 16.1977 20.4222 16.0584 20.5615ZM15.2569 16.5134C14.4791 16.4456 13.7056 16.6837 13.1006 17.1771L6.53811 12.3621C6.69715 11.9609 6.76823 11.5303 6.74656 11.0993C6.72489 10.6682 6.61097 10.2469 6.41249 9.86368L9.5953 6.99962C9.93772 7.22656 10.3231 7.38077 10.7275 7.45268C11.132 7.52458 11.5469 7.51266 11.9466 7.41765C12.3462 7.32263 12.7221 7.14655 13.0509 6.90032C13.3797 6.65409 13.6545 6.34294 13.8581 5.98618L16.5 6.70899C16.4928 7.20769 16.6101 7.70031 16.8413 8.14228C17.0724 8.58425 17.4101 8.96161 17.8237 9.24024L15.2569 16.5134ZM20.5594 7.80962C20.4222 7.95784 20.2566 8.07684 20.0723 8.15949C19.8881 8.24214 19.689 8.28674 19.4871 8.29061C19.2852 8.29449 19.0846 8.25755 18.8973 8.18202C18.7101 8.1065 18.54 7.99393 18.3972 7.85108C18.2545 7.70823 18.1421 7.53803 18.0667 7.35068C17.9914 7.16333 17.9546 6.9627 17.9587 6.7608C17.9627 6.55891 18.0075 6.35991 18.0903 6.17573C18.1731 5.99156 18.2923 5.826 18.4406 5.68899C18.722 5.40765 19.1035 5.2496 19.5014 5.2496C19.8993 5.2496 20.2808 5.40765 20.5622 5.68899C20.8435 5.97033 21.0016 6.3519 21.0016 6.74977C21.0016 7.14764 20.8435 7.52922 20.5622 7.81055L20.5594 7.80962Z" fill="#343330"/>
</svg>
