<svg width="12" height="12" viewBox="0 0 12 12" fill="none" xmlns="http://www.w3.org/2000/svg">
<path d="M10.3338 6.57199C10.3572 6.38532 10.3747 6.19866 10.3747 6.00033C10.3747 5.80199 10.3572 5.61533 10.3338 5.42866L11.5647 4.46616C11.6755 4.37866 11.7047 4.22116 11.6347 4.09283L10.468 2.07449C10.4155 1.98116 10.3163 1.92866 10.2113 1.92866C10.1763 1.92866 10.1413 1.93449 10.1122 1.94616L8.65966 2.52949C8.35633 2.29616 8.02966 2.10366 7.67383 1.95783L7.45216 0.411992C7.43466 0.271992 7.31216 0.166992 7.16633 0.166992H4.833C4.68716 0.166992 4.56466 0.271992 4.54716 0.411992L4.3255 1.95783C3.96966 2.10366 3.643 2.30199 3.33966 2.52949L1.88716 1.94616C1.85216 1.93449 1.81716 1.92866 1.78216 1.92866C1.683 1.92866 1.58383 1.98116 1.53133 2.07449L0.364662 4.09283C0.288829 4.22116 0.323829 4.37866 0.434662 4.46616L1.6655 5.42866C1.64216 5.61533 1.62466 5.80783 1.62466 6.00033C1.62466 6.19283 1.64216 6.38532 1.6655 6.57199L0.434662 7.53449C0.323829 7.62199 0.294662 7.77949 0.364662 7.90783L1.53133 9.92616C1.58383 10.0195 1.683 10.072 1.788 10.072C1.823 10.072 1.858 10.0662 1.88716 10.0545L3.33966 9.47116C3.643 9.70449 3.96966 9.89699 4.3255 10.0428L4.54716 11.5887C4.56466 11.7287 4.68716 11.8337 4.833 11.8337H7.16633C7.31216 11.8337 7.43466 11.7287 7.45216 11.5887L7.67383 10.0428C8.02966 9.89699 8.35633 9.69866 8.65966 9.47116L10.1122 10.0545C10.1472 10.0662 10.1822 10.072 10.2172 10.072C10.3163 10.072 10.4155 10.0195 10.468 9.92616L11.6347 7.90783C11.7047 7.77949 11.6755 7.62199 11.5647 7.53449L10.3338 6.57199ZM9.17883 5.57449C9.20216 5.75533 9.208 5.87783 9.208 6.00033C9.208 6.12283 9.19633 6.25116 9.17883 6.42616L9.09716 7.08533L9.61633 7.49366L10.2463 7.98366L9.838 8.68949L9.09716 8.39199L8.4905 8.14699L7.9655 8.54366C7.71466 8.73033 7.4755 8.87033 7.23633 8.96949L6.618 9.22033L6.52466 9.87949L6.408 10.667H5.59133L5.4805 9.87949L5.38716 9.22033L4.76883 8.96949C4.518 8.86449 4.28466 8.73032 4.05133 8.55532L3.5205 8.14699L2.90216 8.39783L2.16133 8.69533L1.753 7.98949L2.383 7.49949L2.90216 7.09116L2.8205 6.43199C2.803 6.25116 2.79133 6.11699 2.79133 6.00033C2.79133 5.88366 2.803 5.74949 2.8205 5.57449L2.90216 4.91533L2.383 4.50699L1.753 4.01699L2.16133 3.31116L2.90216 3.60866L3.50883 3.85366L4.03383 3.45699C4.28466 3.27033 4.52383 3.13033 4.763 3.03116L5.38133 2.78033L5.47466 2.12116L5.59133 1.33366H6.40216L6.513 2.12116L6.60633 2.78033L7.22466 3.03116C7.4755 3.13616 7.70883 3.27033 7.94216 3.44533L8.473 3.85366L9.09133 3.60283L9.83216 3.30533L10.2405 4.01116L9.61633 4.50699L9.09716 4.91533L9.17883 5.57449ZM5.99966 3.66699C4.7105 3.66699 3.66633 4.71116 3.66633 6.00033C3.66633 7.28949 4.7105 8.33366 5.99966 8.33366C7.28883 8.33366 8.333 7.28949 8.333 6.00033C8.333 4.71116 7.28883 3.66699 5.99966 3.66699ZM5.99966 7.16699C5.358 7.16699 4.833 6.64199 4.833 6.00033C4.833 5.35866 5.358 4.83366 5.99966 4.83366C6.64133 4.83366 7.16633 5.35866 7.16633 6.00033C7.16633 6.64199 6.64133 7.16699 5.99966 7.16699Z" fill="#64748B"/>
</svg>
