<svg width="22" height="22" viewBox="0 0 22 22" fill="none" xmlns="http://www.w3.org/2000/svg">
<path d="M11.1408 7.33366C9.08903 7.33366 7.42716 8.97449 7.42716 11.0003C7.42716 13.0262 9.08903 14.667 11.1408 14.667C13.1927 14.667 14.8545 13.0262 14.8545 11.0003C14.8545 8.97449 13.1927 7.33366 11.1408 7.33366ZM19.4409 10.0837C19.0138 6.26116 15.9408 3.22699 12.0693 2.80533V0.916992H10.2124V2.80533C6.34091 3.22699 3.26784 6.26116 2.84077 10.0837H0.928223V11.917H2.84077C3.26784 15.7395 6.34091 18.7737 10.2124 19.1953V21.0837H12.0693V19.1953C15.9408 18.7737 19.0138 15.7395 19.4409 11.917H21.3535V10.0837H19.4409ZM11.1408 17.417C7.54786 17.417 4.6419 14.5478 4.6419 11.0003C4.6419 7.45283 7.54786 4.58366 11.1408 4.58366C14.7338 4.58366 17.6398 7.45283 17.6398 11.0003C17.6398 14.5478 14.7338 17.417 11.1408 17.417Z" fill="#323232"/>
</svg>
