<svg width="14" height="14" viewBox="0 0 14 14" fill="none" xmlns="http://www.w3.org/2000/svg">
<path d="M1.571 8.83301C1.06037 8.83301 0.642578 9.24551 0.642578 9.74967V12.4997C0.642578 13.0038 1.06037 13.4163 1.571 13.4163H4.35626C4.86689 13.4163 5.28468 13.0038 5.28468 12.4997C5.28468 11.9955 4.86689 11.583 4.35626 11.583H2.49942V9.74967C2.49942 9.24551 2.08163 8.83301 1.571 8.83301ZM1.571 5.16634C2.08163 5.16634 2.49942 4.75384 2.49942 4.24967V2.41634H4.35626C4.86689 2.41634 5.28468 2.00384 5.28468 1.49967C5.28468 0.995508 4.86689 0.583008 4.35626 0.583008H1.571C1.06037 0.583008 0.642578 0.995508 0.642578 1.49967V4.24967C0.642578 4.75384 1.06037 5.16634 1.571 5.16634ZM11.7836 11.583H9.92678C9.41615 11.583 8.99836 11.9955 8.99836 12.4997C8.99836 13.0038 9.41615 13.4163 9.92678 13.4163H12.712C13.2227 13.4163 13.6405 13.0038 13.6405 12.4997V9.74967C13.6405 9.24551 13.2227 8.83301 12.712 8.83301C12.2014 8.83301 11.7836 9.24551 11.7836 9.74967V11.583ZM8.99836 1.49967C8.99836 2.00384 9.41615 2.41634 9.92678 2.41634H11.7836V4.24967C11.7836 4.75384 12.2014 5.16634 12.712 5.16634C13.2227 5.16634 13.6405 4.75384 13.6405 4.24967V1.49967C13.6405 0.995508 13.2227 0.583008 12.712 0.583008H9.92678C9.41615 0.583008 8.99836 0.995508 8.99836 1.49967Z" fill="#323232"/>
</svg>
