<svg width="18" height="18" viewBox="0 0 18 18" fill="none" xmlns="http://www.w3.org/2000/svg">
<path d="M12.7154 1.52917L14.0616 2.85833L12.0376 4.83833C11.6755 5.19583 11.6755 5.7825 12.0376 6.14C12.3997 6.4975 12.9939 6.4975 13.356 6.14L15.3614 4.14167L16.7076 5.47083C16.9954 5.755 17.4967 5.55333 17.4967 5.14083V1.20833C17.4967 0.951667 17.2925 0.75 17.0325 0.75H13.0496C12.6318 0.75 12.4275 1.245 12.7154 1.52917ZM1.57431 5.47083L2.92052 4.14167L4.92591 6.14C5.28799 6.4975 5.88218 6.4975 6.24427 6.14C6.60635 5.7825 6.60635 5.19583 6.24427 4.83833L4.22031 2.85833L5.56652 1.52917C5.85433 1.245 5.65008 0.75 5.23229 0.75H1.24937C0.989409 0.75 0.785156 0.951667 0.785156 1.20833V5.14083C0.785156 5.55333 1.2865 5.755 1.57431 5.47083ZM5.56652 16.4708L4.22031 15.1417L6.24427 13.1617C6.60635 12.8042 6.60635 12.2175 6.24427 11.86C5.88218 11.5025 5.28799 11.5025 4.92591 11.86L2.92052 13.8583L1.57431 12.5292C1.2865 12.245 0.785156 12.4467 0.785156 12.8592V16.7917C0.785156 17.0483 0.989409 17.25 1.24937 17.25H5.23229C5.65008 17.25 5.85433 16.755 5.56652 16.4708ZM16.7076 12.5292L15.3614 13.8583L13.356 11.86C12.9939 11.5025 12.3997 11.5025 12.0376 11.86C11.6755 12.2175 11.6755 12.8042 12.0376 13.1617L14.0616 15.1417L12.7154 16.4708C12.4275 16.755 12.6318 17.25 13.0496 17.25H17.0325C17.2925 17.25 17.4967 17.0483 17.4967 16.7917V12.8592C17.4967 12.4467 16.9954 12.245 16.7076 12.5292Z" fill="#323232"/>
</svg>
