<svg width="12" height="14" viewBox="0 0 12 14" fill="none" xmlns="http://www.w3.org/2000/svg">
<path d="M11.2241 4.6L6.8001 0.176C6.68768 0.063446 6.53517 0.000140042 6.3761 0H2.8001C2.21662 0 1.65704 0.231785 1.24446 0.644365C0.831883 1.05694 0.600098 1.61652 0.600098 2.2V11.8C0.600098 12.3835 0.831883 12.9431 1.24446 13.3556C1.65704 13.7682 2.21662 14 2.8001 14H9.2001C9.78357 14 10.3432 13.7682 10.7557 13.3556C11.1683 12.9431 11.4001 12.3835 11.4001 11.8V5C11.3938 4.84928 11.331 4.70647 11.2241 4.6ZM7.0001 2.048L9.3521 4.4H7.0001V2.048ZM9.2001 12.8H2.8001C2.53488 12.8 2.28053 12.6946 2.09299 12.5071C1.90545 12.3196 1.8001 12.0652 1.8001 11.8V2.2C1.8001 1.93478 1.90545 1.68043 2.09299 1.49289C2.28053 1.30536 2.53488 1.2 2.8001 1.2H5.8001V5C5.80217 5.15849 5.86605 5.3099 5.97813 5.42197C6.0902 5.53405 6.24161 5.59793 6.4001 5.6H10.2001V11.8C10.2001 12.0652 10.0947 12.3196 9.90721 12.5071C9.71967 12.6946 9.46531 12.8 9.2001 12.8Z" fill="#6B7280"/>
</svg>
