<svg width="20" height="17" viewBox="0 0 20 17" fill="none" xmlns="http://www.w3.org/2000/svg">
<path d="M19.7496 10.5004C19.7479 12.0912 19.1152 13.6163 17.9903 14.7411C16.8655 15.866 15.3404 16.4987 13.7496 16.5004H5.49961C5.3007 16.5004 5.10994 16.4214 4.96928 16.2807C4.82863 16.1401 4.74961 15.9493 4.74961 15.7504C4.74961 15.5515 4.82863 15.3607 4.96928 15.2201C5.10994 15.0794 5.3007 15.0004 5.49961 15.0004H13.7496C14.9431 15.0004 16.0877 14.5263 16.9316 13.6824C17.7755 12.8385 18.2496 11.6939 18.2496 10.5004C18.2496 9.30694 17.7755 8.16235 16.9316 7.31844C16.0877 6.47452 14.9431 6.00042 13.7496 6.00042H2.80993L6.03024 9.21979C6.17097 9.36052 6.25003 9.55139 6.25003 9.75042C6.25003 9.94944 6.17097 10.1403 6.03024 10.281C5.88951 10.4218 5.69864 10.5008 5.49961 10.5008C5.30059 10.5008 5.10972 10.4218 4.96899 10.281L0.468988 5.78104C0.399256 5.71139 0.343937 5.62867 0.306193 5.53762C0.26845 5.44657 0.249023 5.34898 0.249023 5.25042C0.249023 5.15186 0.26845 5.05426 0.306193 4.96321C0.343937 4.87216 0.399256 4.78945 0.468988 4.71979L4.96899 0.219792C5.10972 0.0790615 5.30059 -2.96567e-09 5.49961 0C5.69864 2.96567e-09 5.88951 0.0790615 6.03024 0.219792C6.17097 0.360523 6.25003 0.551394 6.25003 0.750417C6.25003 0.94944 6.17097 1.14031 6.03024 1.28104L2.80993 4.50042H13.7496C15.3404 4.50215 16.8655 5.13485 17.9903 6.2597C19.1152 7.38454 19.7479 8.90965 19.7496 10.5004Z" fill="#343330"/>
</svg>
